Coordinates
version=1
nRows=24
nColumns=24
inDegrees=yes

Units are S.I. units (second, meters, Newtons, ...)
Angles are in degrees.

endheader
time	pelvis_tilt	pelvis_list	pelvis_rotation	pelvis_tx	pelvis_ty	pelvis_tz	hip_flexion_r	hip_adduction_r	hip_rotation_r	knee_angle_r	ankle_angle_r	subtalar_angle_r	mtp_angle_r	hip_flexion_l	hip_adduction_l	hip_rotation_l	knee_angle_l	ankle_angle_l	subtalar_angle_l	mtp_angle_l	lumbar_extension	lumbar_bending	lumbar_rotation
      1.16733333	     -4.92398419	     -4.12034067	     -3.62693874	     -0.06219416	      0.99565436	      0.28708122	    -12.87604540	      9.62649894	      3.88763945	     -4.72110528	     14.78902281	     -0.06899707	      2.85685695	     25.98197531	     -3.60808725	     -4.45381039	      8.68082652	      3.63645109	     -2.37071374	     -4.66794881	      0.88831413	      3.78967331	      8.26922387
      1.17150000	     -4.91391702	     -3.95684693	     -3.69316323	     -0.05629108	      0.99482404	      0.28696751	    -13.06768577	      9.41088891	      3.93039968	     -5.06668610	     14.91568749	     -0.09391866	      2.86011858	     26.08041272	     -3.36819544	     -4.41453174	      8.11617707	      3.78226985	     -2.51250650	     -4.64342119	      0.90831781	      3.59731602	      8.29602711
      1.17566667	     -4.90898422	     -3.77808860	     -3.76430186	     -0.05036108	      0.99401650	      0.28682483	    -13.18370150	      9.16769713	      3.76456340	     -5.56521778	     15.26337371	      0.30526126	      2.87722702	     26.21776011	     -3.11724539	     -4.51465854	      7.42764083	      3.95485024	     -2.42206389	     -4.46987181	      0.98248536	      3.36923453	      8.47702019
      1.17983333	     -4.87781413	     -3.59326493	     -3.81042591	     -0.04438523	      0.99326757	      0.28670334	    -13.36964098	      8.93821491	      3.78759623	     -5.96752870	     15.37455556	      0.25254135	      2.88263792	     26.31250247	     -2.85702516	     -4.47791786	      6.72650796	      4.02625045	     -2.56612298	     -4.42442993	      0.99796386	      3.13193617	      8.49313018
      1.18400000	     -4.85872491	     -3.38534871	     -3.85979725	     -0.03837339	      0.99253601	      0.28654364	    -13.48180976	      8.67209292	      3.62631496	     -6.49926888	     15.66603046	      0.59873928	      2.91805696	     26.44785532	     -2.57767565	     -4.57585650	      5.93075701	      4.07560907	     -2.50347968	     -4.12811759	      1.05322510	      2.87218884	      8.63096027
      1.18816667	     -4.81414609	     -3.17911078	     -3.88212586	     -0.03231644	      0.99186394	      0.28640466	    -13.66124802	      8.42959749	      3.64156933	     -6.94012120	     15.72946340	      0.50418242	      2.92573792	     26.54039762	     -2.29555907	     -4.52587605	      5.13868853	      4.04369580	     -2.65711529	     -4.06862169	      1.05842172	      2.60916038	      8.64304529
      1.19233333	     -4.76585022	     -2.96073886	     -3.90079660	     -0.02621988	      0.99122768	      0.28626193	    -13.82484540	      8.17650944	      3.63135117	     -7.42196997	     15.80414856	      0.44280327	      2.93849378	     26.63231395	     -2.00348160	     -4.49473418	      4.31756483	      3.94160612	     -2.80305471	     -3.99323373	      1.08141673	      2.31855068	      8.67300201
      1.19650000	     -4.73912787	     -2.73182017	     -3.92883912	     -0.02008787	      0.99059604	      0.28608093	    -13.90148463	      7.89680133	      3.43613709	     -8.04306742	     16.04056203	      0.79582756	      3.04004905	     26.74249107	     -1.70498486	     -4.46223390	      3.49165605	      3.68666265	     -3.03061200	     -3.44377219	      1.15138396	      2.02586100	      8.81967625
      1.20066667	     -4.67790219	     -2.49623835	     -3.91882887	     -0.01391462	      0.99004451	      0.28590643	    -14.06229978	      7.63837740	      3.43685326	     -8.55362510	     16.02840791	      0.63111202	      3.05523456	     26.82426103	     -1.39075008	     -4.39088585	      2.63500378	      3.49705381	     -3.18894615	     -3.36076656	      1.15297389	      1.71450353	      8.81699955
      1.20483333	     -4.58217098	     -2.25958973	     -3.90381355	     -0.00770384	      0.98957795	      0.28573420	    -14.24805542	      7.37933318	      3.43172827	     -9.08967691	     16.01297687	      0.50033327	      3.97769835	     26.82858785	     -1.07137139	     -4.18902004	      1.87462067	      2.90578929	     -3.69880413	      0.65990488	      1.12377393	      1.37853941	      8.77749257
      1.20900000	     -4.58557939	     -2.01969459	     -3.90428888	     -0.00147256	      0.98902116	      0.28553817	    -14.28273260	      7.11544943	      3.36776702	     -9.71383921	     15.97259398	      0.48446757	      4.01981287	     26.96944483	     -0.76152292	     -4.05215458	      1.02246579	      2.51912779	     -4.06191312	      0.73773715	      1.24897047	      1.07068517	      8.87243408
      1.21316667	     -4.53013187	     -1.76482457	     -3.88330375	      0.00479257	      0.98859361	      0.28531309	    -14.37356355	      6.83905811	      3.30281490	    -10.35003004	     15.91406789	      0.42341196	      4.10272440	     27.01669589	     -0.42233576	     -3.79920523	      0.24081497	      1.96212498	     -4.61361965	      0.87238768	      1.28475587	      0.73269486	      8.88044849
      1.21733333	     -4.50086926	     -1.51086286	     -3.85145326	      0.01107303	      0.98817590	      0.28506623	    -14.41758647	      6.57147211	      3.24289338	    -11.01903535	     15.80709927	      0.31693440	      4.22830295	     27.09316532	     -0.08169869	     -3.50482889	     -0.54562148	      1.36408221	     -5.18972940	      1.05230438	      1.35237642	      0.39489902	      8.88800528
      1.22150000	     -4.45060093	     -1.24592407	     -3.81600950	      0.01737741	      0.98784204	      0.28479998	    -14.46395407	      6.29087090	      3.16657618	    -11.72320642	     15.65966167	      0.21449945	      4.39379939	     27.14069632	      0.27220910	     -3.20836568	     -1.32010554	      0.71550342	     -5.79278585	      1.25625584	      1.39941188	      0.04397813	      8.88403227
      1.22566667	     -4.40860911	     -0.97938626	     -3.77259993	      0.02369564	      0.98754737	      0.28450239	    -14.47880222	      6.01033791	      3.07731322	    -12.46705033	     15.47080413	      0.11108975	      4.59491356	     27.19908111	      0.63013252	     -2.90084217	     -2.10137398	      0.05349550	     -6.39262464	      1.47019501	      1.45741813	     -0.30578060	      8.87167583
      1.22983333	     -4.36786304	     -0.70387562	     -3.71685485	      0.03002974	      0.98730587	      0.28417278	    -14.46709434	      5.72160720	      2.95830614	    -13.25519610	     15.24262583	      0.01707113	      4.86648084	     27.25356991	      1.00297495	     -2.55663853	     -2.87563841	     -0.61615541	     -7.01634553	      1.71645602	      1.51289278	     -0.66994773	      8.85360505
      1.23400000	     -4.29476524	     -0.42376140	     -3.66229292	      0.03638948	      0.98717123	      0.28383977	    -14.47100405	      5.42536189	      2.82797222	    -14.07198095	     14.93348948	     -0.13864614	      4.93038992	     27.31147674	      1.36500140	     -2.45492849	     -3.74250809	     -1.08144625	     -7.20218371	      1.76515845	      1.56014595	     -1.04996479	      8.84450308
      1.23816667	     -4.30279696	     -0.15154334	     -3.60773565	      0.04271340	      0.98697958	      0.28345478	    -14.33929651	      5.13456240	      2.68205591	    -14.98277999	     14.66268594	     -0.12570800	      5.24499545	     27.39976452	      1.73930398	     -1.99044459	     -4.48582433	     -1.85430129	     -8.08111075	      1.96553706	      1.65728322	     -1.38713437	      8.79338409
      1.24233333	     -4.20878988	      0.14151199	     -3.53101358	      0.04909083	      0.98698354	      0.28305803	    -14.31919101	      4.82137930	      2.50898476	    -15.86412835	     14.16911182	     -0.30097207	      8.77985941	     27.40262570	      2.13307997	     -1.72836358	     -5.29114249	     -2.43007732	     -8.55072932	      3.86357588	      1.65170329	     -1.78602327	      8.77045558
      1.24650000	     -4.16656561	      0.42394897	     -3.46865334	      0.05544105	      0.98697453	      0.28263232	    -14.18562167	      4.50565221	      2.28416327	    -16.86538283	     13.78157727	     -0.25149226	      8.85265085	     27.47324054	      2.50582918	     -1.51236990	     -6.13694825	     -2.90082020	     -8.95097281	      3.85389803	      1.70806380	     -2.14309145	      8.71233795
      1.25066667	     -4.10752024	      0.70982968	     -3.39767487	      0.06179613	      0.98704967	      0.28219725	    -14.04864497	      4.18640982	      2.05437908	    -17.89408720	     13.31749924	     -0.25781688	      8.99296568	     27.51950741	      2.88547004	     -1.28546999	     -6.98152424	     -3.31917881	     -9.34371675	      3.84363038	      1.74098302	     -2.51092105	      8.66450892
      1.25483333	     -4.03708987	      0.99486995	     -3.32102120	      0.06815241	      0.98719270	      0.28173230	    -13.89224719	      3.85895267	      1.78851506	    -18.97475602	     12.80600113	     -0.22135524	      9.21698572	     27.55253444	      3.26577520	     -1.08403601	     -7.83589630	     -3.66007328	     -9.68580862	      3.82623693	      1.75569440	     -2.87898130	      8.60263294
      1.25900000	     -3.92919224	      1.27990603	     -3.24458199	      0.07451796	      0.98744489	      0.28128488	    -13.76105227	      3.52905450	      1.54117508	    -20.06543920	     12.16055779	     -0.24446042	      9.31875528	     27.54787927	      3.63767288	     -0.96675121	     -8.71412501	     -3.83471621	     -9.82592572	      3.81615131	      1.72609751	     -3.27045354	      8.57767593
      1.26316667	     -3.83765210	      1.56444245	     -3.18287491	      0.08085230	      0.98772734	      0.28080838	    -13.56120703	      3.18059372	      1.25217515	    -21.23372517	     11.44701739	     -0.26115841	     12.78357418	     27.53220640	      4.01516961	     -0.77457808	     -9.53543222	     -4.13048178	    -10.26768552	      3.44432235	      1.71424744	     -3.62962484	      8.49952666
